:FULLY-SPECIFIED
:FORCE-ALL-JOINTS-BE-3DOF
:DEGREES
204
root 4.90133 15.0705 -25.456 6.97617 -1.13215 5.5326
lfemur 7.26877 -0.889545 0.383762
ltibia 6.23084 0 0
lfoot -35.5956 -11.7277 0
ltoes 46.5936 0 0
rfemur -32.1408 -19.9633 -8.18336
rtibia 52.0185 0 0
rfoot -25.512 17.9689 0
rtoes 58.8446 0 0
lowerback -3.04102 -1.58502 -0.510183
upperback -0.581047 -2.02866 -7.5687
thorax 0.879259 -1.02183 -7.68361
lowerneck -11.5359 0.289549 6.77884
upperneck 3.80026 -0.787854 2.49389
head 3.27394 -0.165943 -0.425811
lclavicle -2.14259e-014 -3.2741e-014 0
lhumerus -58.8212 -46.7744 115.93
lradius 53.8821 0 0
lwrist 25.713 0 0
lhand 40.19 29.9318 0
lfingers 7.12502 0 0
lthumb 62.5452 40.6715 0
rclavicle -2.14259e-014 -3.2741e-014 0
rhumerus -3.55008 -20.1989 -13.9868
rradius 53.6098 0 0
rwrist -22.0341 0 0
rhand -29.7114 -54.2522 0
rfingers 7.12502 0 0
rthumb -3.0427 -444.125 0
205
root 4.85844 15.0453 -25.4444 7.14443 -1.66512 5.65981
lfemur 7.77373 -1.44571 0.691963
ltibia 5.64567 0 0
lfoot -36.1232 -12.2446 0
ltoes 46.8712 0 0
rfemur -31.5244 -19.8187 -8.66657
rtibia 50.8507 0 0
rfoot -26.4829 18.1731 0
rtoes 60.2318 0 0
lowerback -3.27617 -1.48144 -0.422796
upperback -0.63477 -1.88108 -7.71483
thorax 0.935054 -0.948812 -7.90368
lowerneck -11.5422 0.370939 6.94623
upperneck 3.8502 -0.702661 2.44719
head 3.2882 -0.12214 -0.46545
lclavicle -2.26615e-014 -3.33958e-014 0
lhumerus -59.2096 -46.9624 116.228
lradius 53.9907 0 0
lwrist 25.9978 0 0
lhand 40.3788 30.1548 0
lfingers 7.12502 0 0
lthumb 62.7085 40.7378 0
rclavicle -2.26615e-014 -3.33958e-014 0
rhumerus -2.50207 -20.2423 -12.7942
rradius 52.7451 0 0
rwrist -22.4045 0 0
rhand -30.5263 -55.2371 0
rfingers 7.12502 0 0
rthumb -3.82569 -445.182 0
206
root 4.90741 15.0691 -25.4488 7.20814 -0.616333 5.59309
lfemur 6.99463 -1.04974 0.31017
ltibia 6.35346 0 0
lfoot -35.6777 -12.258 0
ltoes 47.0863 0 0
rfemur -31.3473 -19.3803 -8.48838
rtibia 51.2822 0 0
rfoot -25.6434 17.8501 0
rtoes 58.8316 0 0
lowerback -3.1451 -1.50363 -0.459966
upperback -0.634334 -1.9135 -7.52398
thorax 0.872184 -0.963928 -7.67894
lowerneck -11.4961 0.19346 6.7597
upperneck 3.82875 -0.91085 2.41728
head 3.27611 -0.230111 -0.45366
lclavicle -2.22522e-014 -3.27644e-014 0
lhumerus -59.0339 -46.7082 116.245
lradius 54.1308 0 0
lwrist 25.886 0 0
lhand 39.7623 29.7834 0
lfingers 7.12502 0 0
lthumb 62.1479 40.6836 0
rclavicle -2.22522e-014 -3.27644e-014 0
rhumerus -3.3089 -19.9241 -13.9146
rradius 52.3857 0 0
rwrist -21.2419 0 0
rhand -30.0163 -54.2859 0
rfingers 7.12502 0 0
rthumb -3.33384 -451.268 0
207
root 4.95639 15.093 -25.4531 7.27185 0.432453 5.52637
lfemur 6.21554 -0.653768 -0.0716238
ltibia 7.06124 0 0
lfoot -35.2322 -12.2714 0
ltoes 47.3015 0 0
rfemur -31.1701 -18.9419 -8.31018
rtibia 51.7138 0 0
rfoot -24.8038 17.5271 0
rtoes 57.4315 0 0
lowerback -3.01403 -1.52583 -0.497137
upperback -0.633897 -1.94592 -7.33314
thorax 0.809314 -0.979044 -7.4542
lowerneck -11.4499 0.0159818 6.57318
upperneck 3.8073 -1.11904 2.38737
head 3.26403 -0.338081 -0.44187
lclavicle -2.1843e-014 -3.21329e-014 0
lhumerus -58.8582 -46.454 116.262
lradius 54.2708 0 0
lwrist 25.7741 0 0
lhand 39.1458 29.4121 0
lfingers 7.12502 0 0
lthumb 61.5873 40.6294 0
rclavicle -2.1843e-014 -3.21329e-014 0
rhumerus -4.11573 -19.606 -15.0349
rradius 52.0262 0 0
rwrist -20.0793 0 0
rhand -29.5063 -53.3348 0
rfingers 7.12502 0 0
rthumb -2.84198 -457.355 0
